<svg width="800" height="600" xmlns="http://www.w3.org/2000/svg">
 <!-- Created with Method Draw - http://github.com/duopixel/Method-Draw/ -->

 <g>
  <title>background</title>
  <rect fill="#fff" id="canvas_background" height="602" width="802" y="-1" x="-1"/>
  <g display="none" overflow="visible" y="0" x="0" height="100%" width="100%" id="canvasGrid">
   <rect fill="url(#gridpattern)" stroke-width="0" y="0" x="0" height="100%" width="100%"/>
  </g>
 </g>
 <g>
  <title>Layer 1</title>
  <g stroke="null" transform="rotate(90 400.00177001953125,300.0002746582032) " id="svg_27">
   <g stroke="null" transform="matrix(0.7684773189263512,0,0,-1.0211678506134236,-9572.29186288751,12968.701319964981) " id="svg_10">
    <path stroke="null" id="svg_11" d="m13096.21119,12428.45883l-194.287,194.281c-12.359,12.365 -32.397,12.365 -44.75,0c-12.354,-12.354 -12.354,-32.391 0,-44.744l171.914,-171.909l-171.909,-171.903c-12.354,-12.359 -12.354,-32.394 0,-44.748c12.354,-12.359 32.391,-12.359 44.75,0l194.287,194.284c6.177,6.18 9.262,14.271 9.262,22.366c0,8.099 -3.091,16.196 -9.267,22.373z"/>
   </g>
   <g stroke="null" transform="matrix(0.7684773189263512,0,0,-1.0211678506134236,-9572.29186288751,12968.701319964981) " id="svg_12"/>
   <g stroke="null" transform="matrix(0.7684773189263512,0,0,-1.0211678506134236,-9572.29186288751,12968.701319964981) " id="svg_13"/>
   <g stroke="null" transform="matrix(0.7684773189263512,0,0,-1.0211678506134236,-9572.29186288751,12968.701319964981) " id="svg_14"/>
   <g stroke="null" transform="matrix(0.7684773189263512,0,0,-1.0211678506134236,-9572.29186288751,12968.701319964981) " id="svg_15"/>
   <g stroke="null" transform="matrix(0.7684773189263512,0,0,-1.0211678506134236,-9572.29186288751,12968.701319964981) " id="svg_16"/>
   <g stroke="null" transform="matrix(0.7684773189263512,0,0,-1.0211678506134236,-9572.29186288751,12968.701319964981) " id="svg_17"/>
   <g stroke="null" transform="matrix(0.7684773189263512,0,0,-1.0211678506134236,-9572.29186288751,12968.701319964981) " id="svg_18"/>
   <g stroke="null" transform="matrix(0.7684773189263512,0,0,-1.0211678506134236,-9572.29186288751,12968.701319964981) " id="svg_19"/>
   <g stroke="null" transform="matrix(0.7684773189263512,0,0,-1.0211678506134236,-9572.29186288751,12968.701319964981) " id="svg_20"/>
   <g stroke="null" transform="matrix(0.7684773189263512,0,0,-1.0211678506134236,-9572.29186288751,12968.701319964981) " id="svg_21"/>
   <g stroke="null" transform="matrix(0.7684773189263512,0,0,-1.0211678506134236,-9572.29186288751,12968.701319964981) " id="svg_22"/>
   <g stroke="null" transform="matrix(0.7684773189263512,0,0,-1.0211678506134236,-9572.29186288751,12968.701319964981) " id="svg_23"/>
   <g stroke="null" transform="matrix(0.7684773189263512,0,0,-1.0211678506134236,-9572.29186288751,12968.701319964981) " id="svg_24"/>
   <g stroke="null" transform="matrix(0.7684773189263512,0,0,-1.0211678506134236,-9572.29186288751,12968.701319964981) " id="svg_25"/>
   <g stroke="null" transform="matrix(0.7684773189263512,0,0,-1.0211678506134236,-9572.29186288751,12968.701319964981) " id="svg_26"/>
  </g>
 </g>
</svg>