<svg width="800" height="600" xmlns="http://www.w3.org/2000/svg">
 <!-- Created with Method Draw - http://github.com/duopixel/Method-Draw/ -->

 <g>
  <title>background</title>
  <rect fill="#fff" id="canvas_background" height="602" width="802" y="-1" x="-1"/>
  <g display="none" overflow="visible" y="0" x="0" height="100%" width="100%" id="canvasGrid">
   <rect fill="url(#gridpattern)" stroke-width="0" y="0" x="0" height="100%" width="100%"/>
  </g>
 </g>
 <g>
  <title>Layer 1</title>
  <g transform="rotate(-90 400.00000000000006,300) " stroke="null" id="svg_27">
   <g stroke="null" transform="matrix(0.03134753951063751,0,0,0.03134753951063751,0,0) " id="svg_10">
    <path stroke="null" id="svg_11" d="m345.441,9592.49805l-194.287,194.281c-12.359,12.365 -32.397,12.365 -44.75,0c-12.354,-12.354 -12.354,-32.391 0,-44.744l171.914,-171.909l-171.909,-171.903c-12.354,-12.359 -12.354,-32.394 0,-44.748c12.354,-12.359 32.391,-12.359 44.75,0l194.287,194.284c6.177,6.18 9.262,14.271 9.262,22.366c0,8.099 -3.091,16.196 -9.267,22.373z"/>
   </g>
   <g stroke="null" transform="matrix(0.03134753951063751,0,0,0.03134753951063751,0,0) " id="svg_12"/>
   <g stroke="null" transform="matrix(0.03134753951063751,0,0,0.03134753951063751,0,0) " id="svg_13"/>
   <g stroke="null" transform="matrix(0.03134753951063751,0,0,0.03134753951063751,0,0) " id="svg_14"/>
   <g stroke="null" transform="matrix(0.03134753951063751,0,0,0.03134753951063751,0,0) " id="svg_15"/>
   <g stroke="null" transform="matrix(0.03134753951063751,0,0,0.03134753951063751,0,0) " id="svg_16"/>
   <g stroke="null" transform="matrix(0.03134753951063751,0,0,0.03134753951063751,0,0) " id="svg_17"/>
   <g stroke="null" transform="matrix(0.03134753951063751,0,0,0.03134753951063751,0,0) " id="svg_18"/>
   <g stroke="null" transform="matrix(0.03134753951063751,0,0,0.03134753951063751,0,0) " id="svg_19"/>
   <g stroke="null" transform="matrix(0.03134753951063751,0,0,0.03134753951063751,0,0) " id="svg_20"/>
   <g stroke="null" transform="matrix(0.03134753951063751,0,0,0.03134753951063751,0,0) " id="svg_21"/>
   <g stroke="null" transform="matrix(0.03134753951063751,0,0,0.03134753951063751,0,0) " id="svg_22"/>
   <g stroke="null" transform="matrix(0.03134753951063751,0,0,0.03134753951063751,0,0) " id="svg_23"/>
   <g stroke="null" transform="matrix(0.03134753951063751,0,0,0.03134753951063751,0,0) " id="svg_24"/>
   <g stroke="null" transform="matrix(0.03134753951063751,0,0,0.03134753951063751,0,0) " id="svg_25"/>
   <g stroke="null" transform="matrix(0.03134753951063751,0,0,0.03134753951063751,0,0) " id="svg_26"/>
  </g>
  <g transform="rotate(180 503.12506103515625,232.0303192138672) " stroke="null" id="svg_49">
   <g stroke="null" transform="matrix(0.8810086533188849,0,0,0.38109843190712683,-3888.363212695811,-1192.6912877774157) " id="svg_32">
    <path stroke="null" id="svg_33" d="m5104.13241,3760.82984l-194.287,194.281c-12.359,12.365 -32.397,12.365 -44.75,0c-12.354,-12.354 -12.354,-32.391 0,-44.744l171.914,-171.909l-171.909,-171.903c-12.354,-12.359 -12.354,-32.394 0,-44.748c12.354,-12.359 32.391,-12.359 44.75,0l194.287,194.284c6.177,6.18 9.262,14.271 9.262,22.366c0,8.099 -3.091,16.196 -9.267,22.373z"/>
   </g>
   <g stroke="null" transform="matrix(0.8810086533188849,0,0,0.38109843190712683,-3888.363212695811,-1192.6912877774157) " id="svg_34"/>
   <g stroke="null" transform="matrix(0.8810086533188849,0,0,0.38109843190712683,-3888.363212695811,-1192.6912877774157) " id="svg_35"/>
   <g stroke="null" transform="matrix(0.8810086533188849,0,0,0.38109843190712683,-3888.363212695811,-1192.6912877774157) " id="svg_36"/>
   <g stroke="null" transform="matrix(0.8810086533188849,0,0,0.38109843190712683,-3888.363212695811,-1192.6912877774157) " id="svg_37"/>
   <g stroke="null" transform="matrix(0.8810086533188849,0,0,0.38109843190712683,-3888.363212695811,-1192.6912877774157) " id="svg_38"/>
   <g stroke="null" transform="matrix(0.8810086533188849,0,0,0.38109843190712683,-3888.363212695811,-1192.6912877774157) " id="svg_39"/>
   <g stroke="null" transform="matrix(0.8810086533188849,0,0,0.38109843190712683,-3888.363212695811,-1192.6912877774157) " id="svg_40"/>
   <g stroke="null" transform="matrix(0.8810086533188849,0,0,0.38109843190712683,-3888.363212695811,-1192.6912877774157) " id="svg_41"/>
   <g stroke="null" transform="matrix(0.8810086533188849,0,0,0.38109843190712683,-3888.363212695811,-1192.6912877774157) " id="svg_42"/>
   <g stroke="null" transform="matrix(0.8810086533188849,0,0,0.38109843190712683,-3888.363212695811,-1192.6912877774157) " id="svg_43"/>
   <g stroke="null" transform="matrix(0.8810086533188849,0,0,0.38109843190712683,-3888.363212695811,-1192.6912877774157) " id="svg_44"/>
   <g stroke="null" transform="matrix(0.8810086533188849,0,0,0.38109843190712683,-3888.363212695811,-1192.6912877774157) " id="svg_45"/>
   <g stroke="null" transform="matrix(0.8810086533188849,0,0,0.38109843190712683,-3888.363212695811,-1192.6912877774157) " id="svg_46"/>
   <g stroke="null" transform="matrix(0.8810086533188849,0,0,0.38109843190712683,-3888.363212695811,-1192.6912877774157) " id="svg_47"/>
   <g stroke="null" transform="matrix(0.8810086533188849,0,0,0.38109843190712683,-3888.363212695811,-1192.6912877774157) " id="svg_48"/>
  </g>
 </g>
</svg>