<svg width="800" height="600" xmlns="http://www.w3.org/2000/svg">
 <!-- Created with Method Draw - http://github.com/duopixel/Method-Draw/ -->

 <g>
  <title>background</title>
  <rect fill="#fff" id="canvas_background" height="602" width="802" y="-1" x="-1"/>
  <g display="none" overflow="visible" y="0" x="0" height="100%" width="100%" id="canvasGrid">
   <rect fill="url(#gridpattern)" stroke-width="0" y="0" x="0" height="100%" width="100%"/>
  </g>
 </g>
 <g>
  <title>Layer 1</title>
  <g stroke="null" id="svg_54">
   <g stroke="null" transform="matrix(2.4249006258413535,0,0,1.2441965838186373,-4509.423407642507,-1591.1234726493094) " id="svg_35">
    <g stroke="null" id="svg_36">
     <path fill="#3E2A3C" stroke="null" id="svg_37" d="m1887.945,1369.66324c-1.877,-7.41 -9.408,-11.893 -16.818,-10.018c-7.413,1.879 -11.897,9.409 -10.019,16.821l90.439,356.838c1.589,6.271 7.224,10.446 13.409,10.446c1.127,0 2.271,-0.139 3.413,-0.428c7.409,-1.877 11.895,-9.409 10.017,-16.819l-90.441,-356.84z"/>
     <path fill="#3E2A3C" stroke="null" id="svg_38" d="m2188.98,1470.16924c-14.739,-54.423 -29.492,-108.842 -44.234,-163.265c-1.598,-5.891 -4.399,-12.21 -14.929,-12.842c-82.888,-6.003 -137.314,76.542 -220.203,70.538c-6.541,-0.806 -10.745,2.6 -9.148,8.491c14.743,54.422 29.372,108.877 44.233,163.266c2.385,8.729 8.388,12.035 14.931,12.842c82.887,6.004 137.315,-76.541 220.205,-70.537c6.54,0.804 10.742,-2.601 9.145,-8.493zm-65.046,-155.562c4.066,15.015 8.138,30.029 12.204,45.044c-17.436,0.574 -32.825,4.092 -49.132,10.203c-4.065,-15.015 -8.137,-30.03 -12.202,-45.044c16.305,-6.109 31.694,-9.63 49.13,-10.203zm-170.804,168.34c-4.627,-17.059 -9.246,-34.122 -13.868,-51.182c18.328,-0.531 34.591,-4.503 51.602,-11.227c-4.07,-15.015 -8.138,-30.03 -12.204,-45.045c16.629,-7.433 32.314,-16.332 48.022,-25.523c4.066,15.014 8.138,30.029 12.205,45.044c-15.709,9.19 -31.395,18.092 -48.023,25.524c4.623,17.06 9.244,34.122 13.866,51.182c-17.012,6.723 -33.273,10.695 -51.6,11.227zm63.984,34.477c-4.129,-15.234 -8.256,-30.47 -12.384,-45.706c16.513,-7.377 32.087,-16.201 47.683,-25.327c4.128,15.236 8.256,30.471 12.383,45.707c-15.594,9.127 -31.17,17.949 -47.682,25.326zm35.636,-71.229c-4.619,-17.061 -9.242,-34.122 -13.863,-51.183c15.706,-9.17 31.403,-17.945 48.119,-25.157c4.624,17.06 9.246,34.121 13.867,51.181c-16.713,7.214 -32.415,15.988 -48.123,25.159zm60.795,20.431c-4.129,-15.234 -8.256,-30.47 -12.385,-45.706c16.211,-6.045 31.521,-9.521 48.843,-10.086c4.129,15.236 8.257,30.471 12.386,45.705c-17.323,0.566 -32.635,4.041 -48.844,10.087z"/>
    </g>
   </g>
   <g stroke="null" transform="matrix(2.4249006258413535,0,0,1.2441965838186373,-4509.423407642507,-1591.1234726493094) " id="svg_39"/>
   <g stroke="null" transform="matrix(2.4249006258413535,0,0,1.2441965838186373,-4509.423407642507,-1591.1234726493094) " id="svg_40"/>
   <g stroke="null" transform="matrix(2.4249006258413535,0,0,1.2441965838186373,-4509.423407642507,-1591.1234726493094) " id="svg_41"/>
   <g stroke="null" transform="matrix(2.4249006258413535,0,0,1.2441965838186373,-4509.423407642507,-1591.1234726493094) " id="svg_42"/>
   <g stroke="null" transform="matrix(2.4249006258413535,0,0,1.2441965838186373,-4509.423407642507,-1591.1234726493094) " id="svg_43"/>
   <g stroke="null" transform="matrix(2.4249006258413535,0,0,1.2441965838186373,-4509.423407642507,-1591.1234726493094) " id="svg_44"/>
   <g stroke="null" transform="matrix(2.4249006258413535,0,0,1.2441965838186373,-4509.423407642507,-1591.1234726493094) " id="svg_45"/>
   <g stroke="null" transform="matrix(2.4249006258413535,0,0,1.2441965838186373,-4509.423407642507,-1591.1234726493094) " id="svg_46"/>
   <g stroke="null" transform="matrix(2.4249006258413535,0,0,1.2441965838186373,-4509.423407642507,-1591.1234726493094) " id="svg_47"/>
   <g stroke="null" transform="matrix(2.4249006258413535,0,0,1.2441965838186373,-4509.423407642507,-1591.1234726493094) " id="svg_48"/>
   <g stroke="null" transform="matrix(2.4249006258413535,0,0,1.2441965838186373,-4509.423407642507,-1591.1234726493094) " id="svg_49"/>
   <g stroke="null" transform="matrix(2.4249006258413535,0,0,1.2441965838186373,-4509.423407642507,-1591.1234726493094) " id="svg_50"/>
   <g stroke="null" transform="matrix(2.4249006258413535,0,0,1.2441965838186373,-4509.423407642507,-1591.1234726493094) " id="svg_51"/>
   <g stroke="null" transform="matrix(2.4249006258413535,0,0,1.2441965838186373,-4509.423407642507,-1591.1234726493094) " id="svg_52"/>
   <g stroke="null" transform="matrix(2.4249006258413535,0,0,1.2441965838186373,-4509.423407642507,-1591.1234726493094) " id="svg_53"/>
  </g>
 </g>
</svg>