<svg width="800" height="600" xmlns="http://www.w3.org/2000/svg">
 <!-- Created with Method Draw - http://github.com/duopixel/Method-Draw/ -->

 <g>
  <title>background</title>
  <rect fill="#fff" id="canvas_background" height="602" width="802" y="-1" x="-1"/>
  <g display="none" overflow="visible" y="0" x="0" height="100%" width="100%" id="canvasGrid">
   <rect fill="url(#gridpattern)" stroke-width="0" y="0" x="0" height="100%" width="100%"/>
  </g>
 </g>
 <g>
  <title>Layer 1</title>
  <g stroke="null" id="svg_67">
   <path fill="#C48157" stroke="null" id="svg_59" d="m204.70356,170.74128l-69.05972,3.76248c-19.21647,1.04739 -36.33116,8.14966 -46.95837,19.4854l-79.64489,84.94614c-8.05993,8.5965 -9.34123,19.35475 -3.42979,28.77906c5.913,9.42431 18.06438,15.9919 32.50437,17.56957l63.23235,6.90574c14.79184,-55.35574 50.20133,-110.57534 103.35604,-161.44838z"/>
   <path fill="#C48157" stroke="null" id="svg_60" d="m354.85294,510.9595l9.79428,44.5909c2.23722,10.18295 11.55043,18.752 24.91306,22.9207c5.55959,1.73467 11.44456,2.59103 17.29996,2.59103c8.22495,0 16.3923,-1.68966 23.51188,-5.00968l120.46139,-56.16379c16.0747,-7.49531 26.1461,-19.56554 27.62825,-33.11463l5.3354,-48.70032c-72.14232,37.48534 -150.44519,62.45581 -228.94422,72.88579z"/>
   <path fill="#C48157" stroke="null" id="svg_61" d="m331.07173,480.05273c2.19519,0 4.40283,-0.12736 6.60581,-0.38646c32.88736,-3.87776 64.58527,-10.41022 94.82283,-18.9606l-259.8886,-183.27119c-12.12492,21.32217 -21.3883,43.67526 -26.88718,66.86824c-2.16717,9.14215 2.18118,18.45557 11.47414,25.00999l145.01326,102.2621c7.71586,5.44006 18.12977,8.47793 28.85973,8.47793z"/>
   <path fill="#C48157" stroke="null" id="svg_62" d="m735.50186,268.16277c63.59665,-86.70496 65.9522,-178.33068 62.62828,-221.30219c-1.13807,-14.72384 -17.78415,-26.4625 -38.66491,-27.26506c-9.92194,-0.38207 -21.681,-0.65764 -34.93465,-0.65764c-68.13805,0 -175.95297,7.27793 -278.88399,44.82256c-81.80116,29.83742 -189.06495,95.53641 -252.34867,181.87687c0.7473,0.41171 1.47747,0.84867 2.16561,1.33394l280.23691,197.62065c0.68814,0.48527 1.30622,0.99908 1.89004,1.52607c122.43551,-44.62823 215.60027,-120.26973 257.91137,-177.9552zm-270.08611,-130.38901c45.52449,-32.10347 119.602,-32.10677 165.1296,0c22.05465,15.55165 34.1998,36.23045 34.1998,58.22453s-12.14516,42.67289 -34.1998,58.22453c-22.75991,16.05009 -52.66741,24.07678 -82.56402,24.07898c-29.90595,0.0011 -59.79944,-8.0245 -82.56558,-24.07898c-22.05465,-15.55165 -34.20136,-36.23045 -34.20136,-58.22453s12.14671,-42.67289 34.20136,-58.22453z"/>
   <path fill="#C48157" stroke="null" id="svg_63" d="m498.44167,230.93214c27.31531,19.26252 71.764,19.26362 99.07932,0c13.23185,-9.33209 20.51957,-21.73827 20.51957,-34.93494s-7.28772,-25.60285 -20.51957,-34.93384c-13.65688,-9.63181 -31.59827,-14.44717 -49.53966,-14.44717c-17.93983,0 -35.88122,4.81536 -49.5381,14.44717c-13.23185,9.33099 -20.52113,21.73717 -20.52113,34.93384s7.28772,25.60395 20.51957,34.93494z"/>
   <path fill="#C48157" stroke="null" id="svg_64" d="m25.76606,482.18045c5.97683,0 11.95366,-1.60731 16.51218,-4.82414l76.24468,-53.76709c9.12015,-6.43145 9.12015,-16.85814 0,-23.28959c-9.1186,-6.43145 -23.90577,-6.43145 -33.02592,0l-76.24468,53.76709c-9.12015,6.43145 -9.12015,16.85814 0,23.28959c4.56008,3.21573 10.53691,4.82414 16.51374,4.82414z"/>
   <path fill="#C48157" stroke="null" id="svg_65" d="m188.39689,449.57414c-9.1186,-6.43145 -23.90577,-6.43145 -33.02592,0l-146.58726,103.37207c-9.12015,6.43145 -9.12015,16.85814 0,23.28959c4.56008,3.21573 10.53691,4.82304 16.51374,4.82304s11.95366,-1.60731 16.51218,-4.82414l146.5857,-103.37097c9.12171,-6.43145 9.12171,-16.85814 0.00156,-23.28959z"/>
   <path fill="#C48157" stroke="null" id="svg_66" d="m225.24337,498.84865l-76.24312,53.76709c-9.12015,6.43145 -9.12015,16.85814 0,23.28959c4.56008,3.21573 10.53691,4.82414 16.51218,4.82414s11.95366,-1.60731 16.51218,-4.82414l76.24468,-53.76709c9.12015,-6.43145 9.12015,-16.85814 0,-23.28959c-9.1186,-6.43145 -23.90577,-6.43145 -33.02592,0z"/>
  </g>
 </g>
</svg>