<svg width="800" height="600" xmlns="http://www.w3.org/2000/svg">
 <!-- Created with Method Draw - http://github.com/duopixel/Method-Draw/ -->

 <g>
  <title>background</title>
  <rect fill="#fff" id="canvas_background" height="602" width="802" y="-1" x="-1"/>
  <g display="none" overflow="visible" y="0" x="0" height="100%" width="100%" id="canvasGrid">
   <rect fill="url(#gridpattern)" stroke-width="0" y="0" x="0" height="100%" width="100%"/>
  </g>
 </g>
 <g>
  <title>Layer 1</title>
  <g stroke="null" transform="rotate(-0.45875054597854614 398.0838623046875,276.01141357422057) " id="svg_30">
   <g stroke="null" transform="matrix(1.5612824993809697,0,0,1.0908173903021843,-3693.7511465098346,-1866.7305214127357) " id="svg_5">
    <g stroke="null" id="svg_6">
     <g stroke="null" id="svg_7">
      <path stroke="null" fill="#894F3F" id="svg_8" d="m2535.48352,1900.34509c-11.782,0 -21.333,9.551 -21.333,21.333l0,85.333c0,11.782 9.551,21.333 21.333,21.333l170.667,0c11.782,0 21.333,-9.551 21.333,-21.333l0,-85.333c0,-11.782 -9.551,-21.333 -21.333,-21.333l-170.667,0z"/>
      <path stroke="null" fill="#894F3F" id="svg_9" d="m2663.48352,1857.67809l170.667,0c11.782,0 21.333,-9.551 21.333,-21.333l0,-85.333c0,-11.782 -9.551,-21.333 -21.333,-21.333l-170.667,0c-11.782,0 -21.333,9.551 -21.333,21.333l0,85.333c-0.001,11.782 9.551,21.333 21.333,21.333z"/>
      <path stroke="null" fill="#894F3F" id="svg_10" d="m2407.48352,1857.67809l170.667,0c11.782,0 21.333,-9.551 21.333,-21.333l0,-85.333c0,-11.782 -9.551,-21.333 -21.333,-21.333l-170.667,0c-11.782,0 -21.333,9.551 -21.333,21.333l0,85.333c-0.001,11.782 9.551,21.333 21.333,21.333z"/>
      <path stroke="null" fill="#894F3F" id="svg_11" d="m2834.14952,2071.01209l-170.666,0c-11.782,0 -21.333,9.551 -21.333,21.333l0,85.333c0,11.782 9.551,21.333 21.333,21.333l170.667,0c11.782,0 21.333,-9.551 21.333,-21.333l0,-85.333c0,-11.782 -9.552,-21.333 -21.334,-21.333z"/>
      <path stroke="null" fill="#894F3F" id="svg_12" d="m2578.14952,2071.01209l-170.666,0c-11.782,0 -21.333,9.551 -21.333,21.333l0,85.333c0,11.782 9.551,21.333 21.333,21.333l170.667,0c11.782,0 21.333,-9.551 21.333,-21.333l0,-85.333c0,-11.782 -9.552,-21.333 -21.334,-21.333z"/>
      <path stroke="null" fill="#894F3F" id="svg_13" d="m2791.48352,1900.34509c-11.782,0 -21.333,9.551 -21.333,21.333l0,85.333c0,11.782 9.551,21.333 21.333,21.333l85.333,0l0,-127.999l-85.333,0z"/>
      <path stroke="null" fill="#894F3F" id="svg_14" d="m2471.48352,2007.01209l0,-85.333c0,-11.782 -9.551,-21.333 -21.333,-21.333l-85.334,0l0,128l85.333,0c11.782,-0.001 21.334,-9.552 21.334,-21.334z"/>
     </g>
    </g>
   </g>
   <g stroke="null" transform="matrix(1.5612824993809697,0,0,1.0908173903021843,-3693.7511465098346,-1866.7305214127357) " id="svg_15"/>
   <g stroke="null" transform="matrix(1.5612824993809697,0,0,1.0908173903021843,-3693.7511465098346,-1866.7305214127357) " id="svg_16"/>
   <g stroke="null" transform="matrix(1.5612824993809697,0,0,1.0908173903021843,-3693.7511465098346,-1866.7305214127357) " id="svg_17"/>
   <g stroke="null" transform="matrix(1.5612824993809697,0,0,1.0908173903021843,-3693.7511465098346,-1866.7305214127357) " id="svg_18"/>
   <g stroke="null" transform="matrix(1.5612824993809697,0,0,1.0908173903021843,-3693.7511465098346,-1866.7305214127357) " id="svg_19"/>
   <g stroke="null" transform="matrix(1.5612824993809697,0,0,1.0908173903021843,-3693.7511465098346,-1866.7305214127357) " id="svg_20"/>
   <g stroke="null" transform="matrix(1.5612824993809697,0,0,1.0908173903021843,-3693.7511465098346,-1866.7305214127357) " id="svg_21"/>
   <g stroke="null" transform="matrix(1.5612824993809697,0,0,1.0908173903021843,-3693.7511465098346,-1866.7305214127357) " id="svg_22"/>
   <g stroke="null" transform="matrix(1.5612824993809697,0,0,1.0908173903021843,-3693.7511465098346,-1866.7305214127357) " id="svg_23"/>
   <g stroke="null" transform="matrix(1.5612824993809697,0,0,1.0908173903021843,-3693.7511465098346,-1866.7305214127357) " id="svg_24"/>
   <g stroke="null" transform="matrix(1.5612824993809697,0,0,1.0908173903021843,-3693.7511465098346,-1866.7305214127357) " id="svg_25"/>
   <g stroke="null" transform="matrix(1.5612824993809697,0,0,1.0908173903021843,-3693.7511465098346,-1866.7305214127357) " id="svg_26"/>
   <g stroke="null" transform="matrix(1.5612824993809697,0,0,1.0908173903021843,-3693.7511465098346,-1866.7305214127357) " id="svg_27"/>
   <g stroke="null" transform="matrix(1.5612824993809697,0,0,1.0908173903021843,-3693.7511465098346,-1866.7305214127357) " id="svg_28"/>
   <g stroke="null" transform="matrix(1.5612824993809697,0,0,1.0908173903021843,-3693.7511465098346,-1866.7305214127357) " id="svg_29"/>
  </g>
 </g>
</svg>